{"title":"The Warrior's Way 2010 BDrip x246 200MB - cRcWoRLd","uid":7399163,"size":224865435,"categoryP":"video","categoryS":"movies","magnet":"?xt=urn:btih:8589b6905ae3664f52323a4acda935030635a633&amp;dn=The+Warrior%27s+Way+2010+BDrip+x246+200MB+-+cRcWoRLd&amp;tr=udp%3A%2F%2Ftracker.openbittorrent.com%3A80&amp;tr=udp%3A%2F%2Fopen.demonii.com%3A1337&amp;tr=udp%3A%2F%2Ftracker.coppersurfer.tk%3A6969&amp;tr=udp%3A%2F%2Fexodus.desync.com%3A6969","seeders":0,"leechers":1,"uploader":"CRCWORLD","files":11,"time":1341015073,"description":"A warrior-assassin is forced to hide in a small town in the American Badlands after refusing a mission.\n\nIMDB link- http://www.imdb.com/title/tt1032751/\nrating- 6.2\n\nINFO-\n\nGeneral\nComplete name                    :  .mp4\nFormat                           : MPEG-4\nFormat profile                   : Base Media / Version 2\nCodec ID                         : mp42\nFile size                        : 212 MiB\nDuration                         : 1h 40mn\nOverall bit rate mode            : Variable\nOverall bit rate                 : 296 Kbps\n\nVideo\nID                               : 1\nFormat                           : AVC\nFormat/Info                      : Advanced Video Codec\nFormat profile                   : &lt;a class=&quot;__cf_email__&quot; href=&quot;/cdn-cgi/l/email-protection&quot; data-cfemail=&quot;460b272f28060a746877&quot;&gt;[email&amp;#160;protected]&lt;/a&gt;&lt;script cf-hash='f9e31' type=&quot;text/javascript&quot;&gt;\n/* &lt;![CDATA[ */!function(){try{var t=&quot;currentScript&quot;in document?document.currentScript:function(){for(var t=document.getElementsByTagName(&quot;script&quot;),e=t.length;e--;)if(t[e].getAttribute(&quot;cf-hash&quot;))return t[e]}();if(t&amp;&amp;t.previousSibling){var e,r,n,i,c=t.previousSibling,a=c.getAttribute(&quot;data-cfemail&quot;);if(a){for(e=&quot;&quot;,r=parseInt(a.substr(0,2),16),n=2;a.length-n;n+=2)i=parseInt(a.substr(n,2),16)^r,e+=String.fromCharCode(i);e=document.createTextNode(e),c.parentNode.replaceChild(e,c)}}}catch(u){}}();/* ]]&gt; */&lt;/script&gt;\nFormat settings, CABAC           : Yes\nFormat settings, ReFrames        : 4 frames\nCodec ID                         : avc1\nCodec ID/Info                    : Advanced Video Coding\nDuration                         : 1h 40mn\nBit rate mode                    : Variable\nBit rate                         : 228 Kbps\nWidth                            : 624 pixels\nHeight                           : 256 pixels\nDisplay aspect ratio             : 2.40:1\nFrame rate mode                  : Variable\nFrame rate                       : 23.976 fps\nMinimum frame rate               : 11.989 fps\nMaximum frame rate               : 90 000.000 fps\nColor space                      : YUV\nChroma subsampling               : 4:2:0\nBit depth                        : 8 bits\nScan type                        : Progressive\nBits/(Pixel*Frame)               : 0.060\nStream size                      : 163 MiB (77%)\nWriting library                  : x264\n\nAudio\nID                               : 2\nFormat                           : AAC\nFormat/Info                      : Advanced Audio Codec\nFormat profile                   : LC\nCodec ID                         : 40\nDuration                         : 1h 40mn\nBit rate mode                    : Variable\nBit rate                         : 64.0 Kbps\nMaximum bit rate                 : 94.7 Kbps\nChannel(s)                       : 2 channels\nChannel positions                : Front: L R\nSampling rate                    : 22.05 KHz\nCompression mode                 : Lossy\nStream size                      : 45.9 MiB (22%)\n\nSubtitles                        : English\n\nSample                           : Included\n\nTry the SAMPLE 1st.\n &lt;a href=&quot;\nhttp://postimg.com/50000/photo-49972.jpg&quot; rel=&quot;nofollow&quot; target=&quot;_NEW&quot;&gt;\nhttp://postimg.com/50000/photo-49972.jpg&lt;/a&gt; &lt;a href=&quot;\nhttp://postimg.com/50000/photo-49973.jpg&quot; rel=&quot;nofollow&quot; target=&quot;_NEW&quot;&gt;\nhttp://postimg.com/50000/photo-49973.jpg&lt;/a&gt;\n\nAll My 200MB Rips Are Uploaded for Promotional Purposes Only! If You Like It - Buy It!\n\nBEST For SMARTPHONES/IPAD/IPHONE/ANDROID Devices. For PC Use in VLC &amp; MPC.\n\nThe Quality of this movies according to the rip size. plz leave your feed-back at my FB page... I am alwayes there.\n\nNEW Rips will Come SOOOOON.","torrent":{"xt":"urn:btih:8589b6905ae3664f52323a4acda935030635a633","amp;dn":"The+Warrior%27s+Way+2010+BDrip+x246+200MB+-+cRcWoRLd","amp;tr":["udp%3A%2F%2Ftracker.openbittorrent.com%3A80","udp%3A%2F%2Fopen.demonii.com%3A1337","udp%3A%2F%2Ftracker.coppersurfer.tk%3A6969","udp%3A%2F%2Fexodus.desync.com%3A6969"],"infoHash":"8589b6905ae3664f52323a4acda935030635a633","infoHashBuffer":{"type":"Buffer","data":[133,137,182,144,90,227,102,79,82,50,58,74,205,169,53,3,6,53,166,51]},"announce":[],"urlList":[]}}